<svg version="1.1" id="Layer_1" xmlns="http://www.w3.org/2000/svg" xmlns:xlink="http://www.w3.org/1999/xlink" x="0px" y="0px"
	 width="100%" viewBox="0 0 1920 1920" enable-background="new 0 0 1920 1920" xml:space="preserve">
<path fill="#FFFFFF" opacity="1.000000" stroke="none" 
	d="
M1106.000000,1921.000000 
	C737.333313,1921.000000 369.166656,1921.000000 1.000000,1921.000000 
	C1.000000,1281.000000 1.000000,641.000000 1.000000,1.000000 
	C641.000000,1.000000 1281.000000,1.000000 1921.000000,1.000000 
	C1921.000000,641.000000 1921.000000,1281.000000 1921.000000,1921.000000 
	C1649.500000,1921.000000 1378.000000,1921.000000 1106.000000,1921.000000 
M372.772308,338.266541 
	C364.624268,345.879791 355.930420,352.993011 348.420166,361.190552 
	C310.556915,402.518860 289.341492,451.359070 289.244110,507.403015 
	C288.718658,809.728577 288.972931,1112.055542 289.097382,1414.382080 
	C289.101318,1423.995972 290.012360,1433.705444 291.526337,1443.206909 
	C298.949829,1489.793213 318.719696,1530.478638 351.682068,1564.304321 
	C394.879608,1608.632935 447.642670,1632.706421 509.599915,1632.798340 
	C810.592468,1633.244873 1111.586060,1633.063721 1412.579102,1632.801392 
	C1426.783936,1632.788940 1441.206909,1630.962524 1455.149536,1628.121948 
	C1501.973877,1618.582153 1541.647339,1595.742676 1573.882568,1560.550903 
	C1611.610229,1519.363159 1632.656128,1470.558228 1632.753662,1414.701294 
	C1633.282349,1112.209106 1633.026001,809.715454 1632.903442,507.222290 
	C1632.899658,497.773865 1631.994507,488.231506 1630.502197,478.893921 
	C1623.087402,432.500854 1603.488892,391.928589 1570.726685,358.141052 
	C1527.362671,313.420105 1474.341675,289.278931 1412.003296,289.190491 
	C1112.677368,288.765839 813.350403,288.981628 514.023865,289.078461 
	C504.066345,289.081665 494.048706,289.751953 484.162384,290.958099 
	C442.789948,296.005707 405.950867,311.973907 372.772308,338.266541 
z"/>
<path fill="#6E6EA9" opacity="1.000000" stroke="none" 
	d="
M373.062317,338.062073 
	C405.950867,311.973907 442.789948,296.005707 484.162384,290.958099 
	C494.048706,289.751953 504.066345,289.081665 514.023865,289.078461 
	C813.350403,288.981628 1112.677368,288.765839 1412.003296,289.190491 
	C1474.341675,289.278931 1527.362671,313.420105 1570.726685,358.141052 
	C1603.488892,391.928589 1623.087402,432.500854 1630.502197,478.893921 
	C1631.994507,488.231506 1632.899658,497.773865 1632.903442,507.222290 
	C1633.026001,809.715454 1633.282349,1112.209106 1632.753662,1414.701294 
	C1632.656128,1470.558228 1611.610229,1519.363159 1573.882568,1560.550903 
	C1541.647339,1595.742676 1501.973877,1618.582153 1455.149536,1628.121948 
	C1441.206909,1630.962524 1426.783936,1632.788940 1412.579102,1632.801392 
	C1111.586060,1633.063721 810.592468,1633.244873 509.599915,1632.798340 
	C447.642670,1632.706421 394.879608,1608.632935 351.682068,1564.304321 
	C318.719696,1530.478638 298.949829,1489.793213 291.526337,1443.206909 
	C290.012360,1433.705444 289.101318,1423.995972 289.097382,1414.382080 
	C288.972931,1112.055542 288.718658,809.728577 289.244110,507.403015 
	C289.341492,451.359070 310.556915,402.518860 348.420166,361.190552 
	C355.930420,352.993011 364.624268,345.879791 373.062317,338.062073 
M1543.122437,830.500000 
	C1543.122437,726.010620 1543.252075,621.520874 1542.947632,517.032349 
	C1542.912109,504.827576 1541.671387,492.357635 1538.957397,480.474792 
	C1525.736084,422.590088 1470.831421,378.974396 1411.559082,378.922455 
	C1278.239136,378.805573 1144.919067,378.877716 1011.598999,378.886444 
	C1009.840515,378.886566 1008.081970,379.063751 1006.390015,379.154694 
	C1006.390015,558.411804 1006.390015,737.099426 1006.390015,915.718628 
	C1185.430664,915.718628 1364.002808,915.718628 1543.122681,915.718628 
	C1543.122681,887.407654 1543.122681,859.453796 1543.122437,830.500000 
M1005.925354,1346.500000 
	C1005.925354,1411.913086 1005.925354,1477.326294 1005.925354,1543.137695 
	C1008.559692,1543.137695 1010.370056,1543.137817 1012.180359,1543.137817 
	C1144.007812,1543.137085 1275.835205,1543.089478 1407.662598,1543.187866 
	C1426.605103,1543.202026 1444.645386,1539.595825 1462.076782,1532.252319 
	C1510.222900,1511.969971 1543.151367,1462.521118 1543.145020,1410.338135 
	C1543.128906,1277.844116 1543.138184,1145.349976 1543.137329,1012.855957 
	C1543.137329,1010.743164 1543.137451,1008.630432 1543.137451,1006.276855 
	C1363.809692,1006.276855 1185.107788,1006.276855 1005.925232,1006.276855 
	C1005.925232,1119.586182 1005.925232,1232.543091 1005.925354,1346.500000 
M916.074585,798.500000 
	C916.074585,658.756775 916.074585,519.013550 916.074585,378.862274 
	C913.449280,378.862274 911.639893,378.862274 909.830566,378.862274 
	C778.170044,378.862946 646.509521,378.917358 514.849121,378.805206 
	C495.563782,378.788757 477.219147,382.453644 459.467804,389.922150 
	C412.421478,409.715912 378.909698,459.349457 378.881073,510.153900 
	C378.805847,643.647644 378.858490,777.141357 378.874512,910.635071 
	C378.874725,912.375610 379.063141,914.116150 379.156219,915.726562 
	C558.424316,915.726562 737.005981,915.726562 916.074707,915.726562 
	C916.074707,876.752686 916.074707,838.126343 916.074585,798.500000 
M849.500000,1005.924988 
	C692.764526,1005.924988 536.029053,1005.924988 378.877533,1005.924988 
	C378.877533,1008.569519 378.877533,1010.379028 378.877533,1012.188538 
	C378.878052,1144.010010 378.788666,1275.831543 379.042786,1407.652466 
	C379.064087,1418.696899 380.416351,1429.954834 382.817871,1440.742310 
	C395.790924,1499.016602 450.947174,1543.051514 510.609558,1543.086304 
	C643.764160,1543.163696 776.918762,1543.094727 910.073242,1543.228760 
	C914.834717,1543.233521 916.187378,1542.046631 916.183899,1537.192017 
	C916.057861,1362.041382 916.078064,1186.890503 916.077942,1011.739685 
	C916.077942,1009.970886 916.077881,1008.202148 916.077881,1005.924866 
	C893.749939,1005.924866 872.124939,1005.924866 849.500000,1005.924988 
z"/>
<path fill="#FFCD6A" opacity="1.000000" stroke="none" 
	d="
M1543.122559,831.000000 
	C1543.122681,859.453796 1543.122681,887.407654 1543.122681,915.718628 
	C1364.002808,915.718628 1185.430664,915.718628 1006.390015,915.718628 
	C1006.390015,737.099426 1006.390015,558.411804 1006.390015,379.154694 
	C1008.081970,379.063751 1009.840515,378.886566 1011.598999,378.886444 
	C1144.919067,378.877716 1278.239136,378.805573 1411.559082,378.922455 
	C1470.831421,378.974396 1525.736084,422.590088 1538.957397,480.474792 
	C1541.671387,492.357635 1542.912109,504.827576 1542.947632,517.032349 
	C1543.252075,621.520874 1543.122437,726.010620 1543.122559,831.000000 
M1321.500000,602.237976 
	C1271.193481,602.237915 1220.887085,602.219177 1170.580566,602.269165 
	C1165.933472,602.273804 1161.264038,602.502075 1156.643799,602.991577 
	C1135.927246,605.186218 1116.158813,624.347351 1117.785522,650.696106 
	C1119.159180,672.944946 1138.335449,692.038269 1160.670288,692.064697 
	C1236.629761,692.154602 1312.589844,692.234436 1388.548584,691.984802 
	C1404.996338,691.930664 1417.630981,683.782227 1425.605835,669.527344 
	C1433.749878,654.969849 1433.844482,639.760315 1425.564575,625.187439 
	C1416.614624,609.434937 1402.222778,602.452148 1384.466553,602.281555 
	C1363.812866,602.083130 1343.155640,602.237244 1321.500000,602.237976 
z"/>
<path fill="#FBF7F4" opacity="1.000000" stroke="none" 
	d="
M1005.925293,1346.000000 
	C1005.925232,1232.543091 1005.925232,1119.586182 1005.925232,1006.276855 
	C1185.107788,1006.276855 1363.809692,1006.276855 1543.137451,1006.276855 
	C1543.137451,1008.630432 1543.137329,1010.743164 1543.137329,1012.855957 
	C1543.138184,1145.349976 1543.128906,1277.844116 1543.145020,1410.338135 
	C1543.151367,1462.521118 1510.222900,1511.969971 1462.076782,1532.252319 
	C1444.645386,1539.595825 1426.605103,1543.202026 1407.662598,1543.187866 
	C1275.835205,1543.089478 1144.007812,1543.137085 1012.180359,1543.137817 
	C1010.370056,1543.137817 1008.559692,1543.137695 1005.925354,1543.137695 
	C1005.925354,1477.326294 1005.925354,1411.913086 1005.925293,1346.000000 
M1149.383789,1231.723145 
	C1125.741455,1239.638550 1112.989136,1262.636719 1119.156616,1286.237061 
	C1124.458374,1306.525269 1142.509766,1319.722900 1165.174805,1319.731689 
	C1236.641357,1319.759277 1308.107910,1319.751831 1379.574463,1319.715576 
	C1383.558350,1319.713623 1387.549316,1319.423706 1391.524414,1319.108398 
	C1411.264771,1317.542847 1433.176514,1299.598145 1431.321045,1270.758789 
	C1429.890625,1248.523804 1410.350586,1229.913818 1387.380493,1229.903320 
	C1312.249023,1229.869019 1237.117432,1229.865112 1161.986084,1229.955322 
	C1158.043579,1229.960083 1154.102051,1230.941406 1149.383789,1231.723145 
M1299.442017,1209.025146 
	C1309.659424,1202.001099 1316.588501,1192.506714 1318.470337,1180.273438 
	C1319.643188,1172.648315 1319.701294,1164.661499 1318.953857,1156.963745 
	C1315.736938,1123.834351 1275.811035,1106.238403 1248.784058,1125.706787 
	C1229.920410,1139.294922 1227.199097,1158.798828 1230.613037,1179.306396 
	C1235.962769,1211.442505 1269.995728,1225.997925 1299.442017,1209.025146 
M1231.137817,1398.119995 
	C1236.943604,1416.686035 1249.150513,1428.432495 1268.596069,1430.915527 
	C1288.348633,1433.437622 1303.818848,1425.619263 1313.859863,1408.302979 
	C1320.309814,1397.179810 1320.493286,1384.857056 1319.135986,1372.417114 
	C1317.137695,1354.104126 1303.825928,1338.687378 1285.950562,1334.127563 
	C1267.667236,1329.463501 1248.519165,1336.532471 1237.895630,1351.654297 
	C1227.984619,1365.761963 1228.995483,1381.431519 1231.137817,1398.119995 
z"/>
<path fill="#FBF7F4" opacity="1.000000" stroke="none" 
	d="
M916.074646,799.000000 
	C916.074707,838.126343 916.074707,876.752686 916.074707,915.726562 
	C737.005981,915.726562 558.424316,915.726562 379.156219,915.726562 
	C379.063141,914.116150 378.874725,912.375610 378.874512,910.635071 
	C378.858490,777.141357 378.805847,643.647644 378.881073,510.153900 
	C378.909698,459.349457 412.421478,409.715912 459.467804,389.922150 
	C477.219147,382.453644 495.563782,378.788757 514.849121,378.805206 
	C646.509521,378.917358 778.170044,378.862946 909.830566,378.862274 
	C911.639893,378.862274 913.449280,378.862274 916.074585,378.862274 
	C916.074585,519.013550 916.074585,658.756775 916.074646,799.000000 
M602.258728,589.491882 
	C602.258728,593.588379 602.258728,597.684875 602.258728,602.258667 
	C599.374817,602.258667 597.244873,602.241882 595.115295,602.261353 
	C573.638550,602.457520 552.108276,601.782532 530.699219,603.090210 
	C506.037903,604.596680 489.396454,625.708130 490.776733,651.526245 
	C491.967712,673.802734 511.799072,692.062012 534.912415,692.102173 
	C555.403687,692.137817 575.895142,692.111755 596.386475,692.112854 
	C598.166626,692.112976 599.946716,692.112854 602.257080,692.112854 
	C602.257080,694.704163 602.241272,696.661011 602.259460,698.617676 
	C602.464111,720.592957 601.811401,742.619507 603.114624,764.529663 
	C604.539307,788.480835 625.921814,805.406006 650.905151,804.121216 
	C673.652771,802.951416 692.064636,783.297302 692.108337,760.061829 
	C692.147522,739.237366 692.109802,718.412720 692.125183,697.588196 
	C692.126465,695.840149 692.273376,694.092163 692.363159,692.111633 
	C715.306335,692.111633 737.620911,692.151978 759.935364,692.101501 
	C788.517456,692.036926 809.641113,665.433899 803.267944,637.603638 
	C798.410217,616.390991 780.507812,602.418335 757.713989,602.283691 
	C737.723083,602.165649 717.731018,602.266357 697.739441,602.247437 
	C695.988037,602.245789 694.236816,602.073364 692.117798,601.960693 
	C692.117798,599.612671 692.117920,597.807251 692.117737,596.001831 
	C692.116150,575.510498 692.165405,555.018921 692.100464,534.527832 
	C692.011047,506.308655 665.243408,485.206207 637.717529,491.585327 
	C616.150574,496.583435 602.405518,514.317017 602.278381,537.515076 
	C602.185303,554.507324 602.259460,571.500610 602.258728,589.491882 
z"/>
<path fill="#FFCD6A" opacity="1.000000" stroke="none" 
	d="
M850.000000,1005.924927 
	C872.124939,1005.924866 893.749939,1005.924866 916.077881,1005.924866 
	C916.077881,1008.202148 916.077942,1009.970886 916.077942,1011.739685 
	C916.078064,1186.890503 916.057861,1362.041382 916.183899,1537.192017 
	C916.187378,1542.046631 914.834717,1543.233521 910.073242,1543.228760 
	C776.918762,1543.094727 643.764160,1543.163696 510.609558,1543.086304 
	C450.947174,1543.051514 395.790924,1499.016602 382.817871,1440.742310 
	C380.416351,1429.954834 379.064087,1418.696899 379.042786,1407.652466 
	C378.788666,1275.831543 378.878052,1144.010010 378.877533,1012.188538 
	C378.877533,1010.379028 378.877533,1008.569519 378.877533,1005.924988 
	C536.029053,1005.924988 692.764526,1005.924988 850.000000,1005.924927 
M577.498901,1280.977539 
	C561.362793,1297.118164 545.218689,1313.250732 529.099609,1329.408203 
	C526.750183,1331.763306 524.257141,1334.041016 522.277893,1336.688965 
	C507.487030,1356.476318 510.352234,1382.330444 529.034424,1398.707520 
	C546.258545,1413.806152 573.183899,1412.306152 590.209045,1395.282471 
	C607.761475,1377.731323 625.297485,1360.163940 642.849304,1342.612305 
	C644.233765,1341.227783 645.684692,1339.909790 647.362732,1338.315796 
	C649.352905,1340.214111 651.050903,1341.771973 652.680969,1343.397949 
	C670.728149,1361.399048 688.590454,1379.590332 706.871460,1397.350708 
	C717.374756,1407.554932 730.551575,1410.917480 744.763245,1408.350586 
	C762.512146,1405.145142 774.565430,1394.521729 779.880066,1377.289062 
	C785.208923,1360.010376 780.799133,1344.638794 768.205505,1331.842651 
	C750.675964,1314.031250 732.890442,1296.471680 715.224426,1278.794556 
	C713.951416,1277.520752 712.758606,1276.166870 711.253296,1274.555664 
	C712.704773,1272.985352 713.877625,1271.627197 715.142639,1270.361206 
	C732.923523,1252.566650 750.710876,1234.778442 768.508911,1217.000977 
	C786.285522,1199.244873 786.445435,1170.814331 768.852356,1153.211670 
	C751.223450,1135.573120 722.800354,1135.667114 705.062561,1153.418945 
	C687.281860,1171.213501 669.500977,1189.008057 651.709473,1206.791992 
	C650.435181,1208.065796 649.074768,1209.253296 647.445984,1210.767822 
	C645.768433,1209.186768 644.303528,1207.874634 642.914307,1206.486572 
	C625.117920,1188.704224 607.391235,1170.851318 589.525635,1153.138794 
	C574.961304,1138.699341 551.885498,1135.836792 535.186829,1146.183838 
	C509.232208,1162.266113 505.130493,1195.539673 526.592712,1217.285156 
	C544.030334,1234.953125 561.692749,1252.399170 579.238159,1269.961060 
	C580.710999,1271.435181 582.051697,1273.041504 584.358459,1275.583374 
	C581.970398,1277.438965 579.999878,1278.970093 577.498901,1280.977539 
z"/>
<path fill="#6E6EA9" opacity="1.000000" stroke="none" 
	d="
M1322.000000,602.238159 
	C1343.155640,602.237244 1363.812866,602.083130 1384.466553,602.281555 
	C1402.222778,602.452148 1416.614624,609.434937 1425.564575,625.187439 
	C1433.844482,639.760315 1433.749878,654.969849 1425.605835,669.527344 
	C1417.630981,683.782227 1404.996338,691.930664 1388.548584,691.984802 
	C1312.589844,692.234436 1236.629761,692.154602 1160.670288,692.064697 
	C1138.335449,692.038269 1119.159180,672.944946 1117.785522,650.696106 
	C1116.158813,624.347351 1135.927246,605.186218 1156.643799,602.991577 
	C1161.264038,602.502075 1165.933472,602.273804 1170.580566,602.269165 
	C1220.887085,602.219177 1271.193481,602.237915 1322.000000,602.238159 
z"/>
<path fill="#6E6EA9" opacity="1.000000" stroke="none" 
	d="
M1149.771973,1231.595581 
	C1154.102051,1230.941406 1158.043579,1229.960083 1161.986084,1229.955322 
	C1237.117432,1229.865112 1312.249023,1229.869019 1387.380493,1229.903320 
	C1410.350586,1229.913818 1429.890625,1248.523804 1431.321045,1270.758789 
	C1433.176514,1299.598145 1411.264771,1317.542847 1391.524414,1319.108398 
	C1387.549316,1319.423706 1383.558350,1319.713623 1379.574463,1319.715576 
	C1308.107910,1319.751831 1236.641357,1319.759277 1165.174805,1319.731689 
	C1142.509766,1319.722900 1124.458374,1306.525269 1119.156616,1286.237061 
	C1112.989136,1262.636719 1125.741455,1239.638550 1149.771973,1231.595581 
z"/>
<path fill="#6E6EAA" opacity="1.000000" stroke="none" 
	d="
M1299.142090,1209.228638 
	C1269.995728,1225.997925 1235.962769,1211.442505 1230.613037,1179.306396 
	C1227.199097,1158.798828 1229.920410,1139.294922 1248.784058,1125.706787 
	C1275.811035,1106.238403 1315.736938,1123.834351 1318.953857,1156.963745 
	C1319.701294,1164.661499 1319.643188,1172.648315 1318.470337,1180.273438 
	C1316.588501,1192.506714 1309.659424,1202.001099 1299.142090,1209.228638 
z"/>
<path fill="#6E6EAA" opacity="1.000000" stroke="none" 
	d="
M1231.064697,1397.706421 
	C1228.995483,1381.431519 1227.984619,1365.761963 1237.895630,1351.654297 
	C1248.519165,1336.532471 1267.667236,1329.463501 1285.950562,1334.127563 
	C1303.825928,1338.687378 1317.137695,1354.104126 1319.135986,1372.417114 
	C1320.493286,1384.857056 1320.309814,1397.179810 1313.859863,1408.302979 
	C1303.818848,1425.619263 1288.348633,1433.437622 1268.596069,1430.915527 
	C1249.150513,1428.432495 1236.943604,1416.686035 1231.064697,1397.706421 
z"/>
<path fill="#6E6EA9" opacity="1.000000" stroke="none" 
	d="
M602.258911,588.992676 
	C602.259460,571.500610 602.185303,554.507324 602.278381,537.515076 
	C602.405518,514.317017 616.150574,496.583435 637.717529,491.585327 
	C665.243408,485.206207 692.011047,506.308655 692.100464,534.527832 
	C692.165405,555.018921 692.116150,575.510498 692.117737,596.001831 
	C692.117920,597.807251 692.117798,599.612671 692.117798,601.960693 
	C694.236816,602.073364 695.988037,602.245789 697.739441,602.247437 
	C717.731018,602.266357 737.723083,602.165649 757.713989,602.283691 
	C780.507812,602.418335 798.410217,616.390991 803.267944,637.603638 
	C809.641113,665.433899 788.517456,692.036926 759.935364,692.101501 
	C737.620911,692.151978 715.306335,692.111633 692.363159,692.111633 
	C692.273376,694.092163 692.126465,695.840149 692.125183,697.588196 
	C692.109802,718.412720 692.147522,739.237366 692.108337,760.061829 
	C692.064636,783.297302 673.652771,802.951416 650.905151,804.121216 
	C625.921814,805.406006 604.539307,788.480835 603.114624,764.529663 
	C601.811401,742.619507 602.464111,720.592957 602.259460,698.617676 
	C602.241272,696.661011 602.257080,694.704163 602.257080,692.112854 
	C599.946716,692.112854 598.166626,692.112976 596.386475,692.112854 
	C575.895142,692.111755 555.403687,692.137817 534.912415,692.102173 
	C511.799072,692.062012 491.967712,673.802734 490.776733,651.526245 
	C489.396454,625.708130 506.037903,604.596680 530.699219,603.090210 
	C552.108276,601.782532 573.638550,602.457520 595.115295,602.261353 
	C597.244873,602.241882 599.374817,602.258667 602.258728,602.258667 
	C602.258728,597.684875 602.258728,593.588379 602.258911,588.992676 
z"/>
<path fill="#6E6DA9" opacity="1.000000" stroke="none" 
	d="
M577.764160,1280.739258 
	C579.999878,1278.970093 581.970398,1277.438965 584.358459,1275.583374 
	C582.051697,1273.041504 580.710999,1271.435181 579.238159,1269.961060 
	C561.692749,1252.399170 544.030334,1234.953125 526.592712,1217.285156 
	C505.130493,1195.539673 509.232208,1162.266113 535.186829,1146.183838 
	C551.885498,1135.836792 574.961304,1138.699341 589.525635,1153.138794 
	C607.391235,1170.851318 625.117920,1188.704224 642.914307,1206.486572 
	C644.303528,1207.874634 645.768433,1209.186768 647.445984,1210.767822 
	C649.074768,1209.253296 650.435181,1208.065796 651.709473,1206.791992 
	C669.500977,1189.008057 687.281860,1171.213501 705.062561,1153.418945 
	C722.800354,1135.667114 751.223450,1135.573120 768.852356,1153.211670 
	C786.445435,1170.814331 786.285522,1199.244873 768.508911,1217.000977 
	C750.710876,1234.778442 732.923523,1252.566650 715.142639,1270.361206 
	C713.877625,1271.627197 712.704773,1272.985352 711.253296,1274.555664 
	C712.758606,1276.166870 713.951416,1277.520752 715.224426,1278.794556 
	C732.890442,1296.471680 750.675964,1314.031250 768.205505,1331.842651 
	C780.799133,1344.638794 785.208923,1360.010376 779.880066,1377.289062 
	C774.565430,1394.521729 762.512146,1405.145142 744.763245,1408.350586 
	C730.551575,1410.917480 717.374756,1407.554932 706.871460,1397.350708 
	C688.590454,1379.590332 670.728149,1361.399048 652.680969,1343.397949 
	C651.050903,1341.771973 649.352905,1340.214111 647.362732,1338.315796 
	C645.684692,1339.909790 644.233765,1341.227783 642.849304,1342.612305 
	C625.297485,1360.163940 607.761475,1377.731323 590.209045,1395.282471 
	C573.183899,1412.306152 546.258545,1413.806152 529.034424,1398.707520 
	C510.352234,1382.330444 507.487030,1356.476318 522.277893,1336.688965 
	C524.257141,1334.041016 526.750183,1331.763306 529.099609,1329.408203 
	C545.218689,1313.250732 561.362793,1297.118164 577.764160,1280.739258 
z"/>
</svg>